<?xml version="1.0" encoding="utf-8"?>
<svg viewBox="0 63.455 500 307.873" xmlns="http://www.w3.org/2000/svg">
  <path d="M 170.282 151.379 C 170.282 149.633 170.941 147.961 172.118 146.728 C 173.294 145.493 174.888 144.8 176.55 144.8 L 301.905 144.8 C 303.568 144.8 305.162 145.493 306.335 146.728 C 307.511 147.961 308.171 149.633 308.171 151.379 C 308.171 158.46 308.021 165.197 307.744 171.591 C 312.699 172.451 317.436 174.346 321.681 177.158 C 325.929 179.973 329.594 183.651 332.463 187.976 C 335.332 192.301 337.347 197.185 338.388 202.34 C 339.43 207.495 339.481 212.818 338.532 217.991 C 337.582 223.167 335.657 228.092 332.866 232.471 C 330.078 236.853 326.481 240.603 322.287 243.501 C 318.093 246.402 313.391 248.391 308.454 249.349 C 303.517 250.31 298.445 250.223 293.544 249.092 C 283.639 273.632 270.001 285.632 258.031 288.713 L 258.031 317.304 L 275.893 321.99 C 278.326 322.623 280.618 323.766 282.624 325.345 L 305.663 343.492 C 306.717 344.318 307.493 345.477 307.887 346.793 C 308.278 348.109 308.266 349.524 307.848 350.835 C 307.433 352.145 306.636 353.283 305.571 354.091 C 304.502 354.9 303.218 355.333 301.905 355.333 L 176.55 355.333 C 175.234 355.333 173.953 354.9 172.885 354.091 C 171.819 353.283 171.022 352.145 170.604 350.835 C 170.189 349.524 170.174 348.109 170.568 346.793 C 170.959 345.477 171.738 344.318 172.789 343.492 L 195.831 325.345 C 197.837 323.766 200.129 322.623 202.562 321.99 L 220.425 317.304 L 220.425 288.713 C 208.452 285.632 194.813 273.632 184.911 249.08 C 180.007 250.214 174.929 250.307 169.992 249.349 C 165.049 248.394 160.341 246.405 156.144 243.507 C 151.947 240.608 148.348 236.856 145.553 232.471 C 142.759 228.086 140.834 223.161 139.885 217.982 C 138.936 212.8 138.986 207.474 140.031 202.316 C 141.076 197.158 143.097 192.271 145.971 187.946 C 148.846 183.621 152.518 179.943 156.768 177.131 C 161.019 174.319 165.762 172.433 170.721 171.576 C 170.425 164.848 170.282 158.116 170.282 151.379 Z M 171.524 184.8 C 164.983 186.057 159.186 189.991 155.407 195.734 C 151.628 201.477 150.177 208.561 151.374 215.427 C 152.568 222.295 156.315 228.379 161.789 232.346 C 167.261 236.313 174.007 237.835 180.55 236.579 C 176.374 222.764 173.177 205.71 171.524 184.8 Z M 297.917 236.579 C 304.46 237.835 311.206 236.313 316.678 232.346 C 322.15 228.379 325.896 222.295 327.093 215.427 C 328.29 208.561 326.839 201.477 323.06 195.734 C 319.281 189.991 313.484 186.057 306.944 184.8 C 305.278 205.722 302.078 222.764 297.917 236.579 Z" fill="#FFD233" style=""/>
  <path d="M 53.921 182.713 L 66.83 222.445 L 108.607 222.445 L 74.809 247 L 87.718 286.731 L 53.921 262.176 L 20.123 286.731 L 33.033 247 L -0.765 222.445 L 41.011 222.445 L 53.921 182.713 Z" fill="#D9D9D9" fill-opacity="0.83"/>
  <path d="M 102.421 121.713 L 110.054 145.206 L 134.757 145.206 L 114.772 159.726 L 122.406 183.22 L 102.421 168.7 L 82.436 183.22 L 90.07 159.726 L 70.085 145.206 L 94.787 145.206 L 102.421 121.713 Z" fill="#D9D9D9" fill-opacity="0.83"/>
  <path d="M 369.921 70.713 L 381.483 106.299 L 418.9 106.299 L 388.629 128.292 L 400.192 163.877 L 369.921 141.884 L 339.65 163.877 L 351.213 128.292 L 320.942 106.299 L 358.359 106.299 L 369.921 70.713 Z" fill="#D9D9D9" fill-opacity="0.83"/>
  <path d="M 435.421 230.713 L 450.014 275.627 L 497.24 275.627 L 459.034 303.385 L 473.627 348.299 L 435.421 320.541 L 397.215 348.299 L 411.808 303.385 L 373.602 275.627 L 420.828 275.627 L 435.421 230.713 Z" fill="#D9D9D9" fill-opacity="0.83"/>
  <path d="M 234.421 106.713 L 238.013 117.769 L 249.638 117.769 L 240.233 124.602 L 243.826 135.657 L 234.421 128.825 L 225.016 135.657 L 228.609 124.602 L 219.204 117.769 L 230.829 117.769 L 234.421 106.713 Z" fill="#D9D9D9" fill-opacity="0.83"/>
  <path d="M 127.421 70.713 L 131.013 81.769 L 142.638 81.769 L 133.233 88.602 L 136.826 99.657 L 127.421 92.825 L 118.016 99.657 L 121.609 88.602 L 112.204 81.769 L 123.829 81.769 L 127.421 70.713 Z" fill="#D9D9D9" fill-opacity="0.83"/>
  <path d="M 234.421 106.713 L 238.013 117.769 L 249.638 117.769 L 240.233 124.602 L 243.826 135.657 L 234.421 128.825 L 225.016 135.657 L 228.609 124.602 L 219.204 117.769 L 230.829 117.769 L 234.421 106.713 Z" fill="#D9D9D9" fill-opacity="0.83"/>
  <path d="M 454.421 157.713 L 458.013 168.769 L 469.638 168.769 L 460.233 175.602 L 463.826 186.657 L 454.421 179.824 L 445.016 186.657 L 448.609 175.602 L 439.204 168.769 L 450.829 168.769 L 454.421 157.713 Z" fill="#D9D9D9" fill-opacity="0.83"/>
  <path d="M 120.421 335.713 L 124.013 346.769 L 135.638 346.769 L 126.233 353.602 L 129.826 364.657 L 120.421 357.824 L 111.016 364.657 L 114.609 353.602 L 105.204 346.769 L 116.829 346.769 L 120.421 335.713 Z" fill="#D9D9D9" fill-opacity="0.83"/>
</svg>